<?xml version="1.0" standalone="no"?>
<!DOCTYPE svg PUBLIC "-//W3C//DTD SVG 20010904//EN"
 "http://www.w3.org/TR/2001/REC-SVG-20010904/DTD/svg10.dtd">
<svg version="1.0" xmlns="http://www.w3.org/2000/svg"
 width="512.000000pt" height="512.000000pt" viewBox="0 0 512.000000 512.000000"
 preserveAspectRatio="xMidYMid meet">
<metadata>
Created by potrace 1.11, written by Peter Selinger 2001-2013
</metadata>
<g transform="translate(0.000000,512.000000) scale(0.100000,-0.100000)"
fill="#000000" stroke="none">
<path d="M2410 5113 c-157 -22 -344 -64 -405 -93 -11 -5 -49 -21 -85 -36 -225
-92 -472 -285 -627 -491 -179 -237 -280 -481 -320 -774 -9 -69 -10 -352 -1
-444 20 -198 56 -380 123 -630 46 -168 180 -528 266 -713 21 -46 39 -86 39
-88 0 -14 215 -431 269 -522 17 -29 31 -55 31 -57 0 -21 384 -625 513 -805 70
-97 259 -353 268 -360 3 -3 21 -27 41 -53 l37 -48 45 58 c212 270 360 478 578
813 45 69 278 458 278 465 0 2 14 28 31 56 33 57 194 374 229 454 13 28 36 79
52 115 78 170 199 496 249 670 27 94 87 352 94 405 4 22 10 69 16 104 30 197
33 528 4 653 -2 13 -7 34 -9 48 -23 143 -109 363 -200 510 -246 399 -628 659
-1101 747 -73 13 -354 24 -415 16z m315 -646 c170 -40 242 -70 365 -150 219
-143 380 -395 418 -652 8 -53 8 -227 0 -291 -36 -293 -254 -584 -539 -721
-139 -66 -268 -92 -439 -88 -254 6 -481 105 -656 287 -181 187 -268 401 -268
658 0 176 22 285 87 420 137 285 432 504 722 537 28 3 52 7 53 9 6 4 234 -4
257 -9z"/>
<path d="M2377 4142 c-126 -55 -237 -108 -248 -119 -13 -13 -25 -48 -35 -103
-8 -47 -18 -88 -22 -92 -14 -14 -102 -47 -102 -39 0 5 -13 13 -28 19 -23 8
-38 5 -78 -14 -27 -12 -54 -23 -60 -23 -27 -2 -64 -43 -64 -71 0 -16 -11 -46
-25 -66 -41 -60 -44 -123 -11 -197 32 -71 87 -199 141 -327 77 -181 91 -208
133 -248 55 -54 115 -77 202 -77 77 0 134 18 310 98 30 14 100 44 155 67 55
23 123 52 150 65 28 12 67 28 88 36 20 7 37 16 37 19 0 4 6 7 13 7 6 0 37 12
67 26 30 13 100 44 155 67 145 61 173 77 217 122 55 56 80 118 81 198 0 61 -6
80 -97 290 -53 123 -104 240 -113 260 -9 19 -32 50 -52 69 -84 78 -196 97
-319 55 l-72 -25 -67 46 c-37 26 -80 49 -97 51 -23 3 -90 -21 -259 -94z m423
-195 c30 -11 67 -27 81 -36 186 -114 235 -348 114 -537 -178 -278 -587 -298
-759 -37 -15 22 -28 48 -31 59 -2 10 -9 35 -14 54 -35 114 17 276 122 380 53
52 144 106 216 126 70 20 206 15 271 -9z m-817 -276 c22 -37 14 -70 -24 -105
-27 -24 -38 -27 -72 -23 -48 7 -66 23 -73 68 -15 92 121 140 169 60z"/>
<path d="M2560 3830 c-123 -31 -224 -144 -236 -264 -20 -194 179 -332 381
-264 249 84 293 396 71 510 -46 24 -158 33 -216 18z"/>
</g>
</svg>
